# xmcd
# Track frame offsets:
# 182
# 11290
# 20612
# 31265
# 46740
# 55040
# 67490
# 78655
# 94010
# 104592
#
# Disc length: 1491 seconds
# Revision: 0
# Processed by: cddbd v1.4PL0 Copyright (c) Steve Scherf et al.
# Submitted via: VisiTrax 2.9.3.171 - For more info visit www.synapsa.com
#
DISCID=7b05d10a
DTITLE=Fats Domino - A Profile of Fats Domino
DYEAR=1998
DGENRE=Blues
TTITLE0=Blueberry Hill
TTITLE1=My Blue Heaven
TTITLE2=Aint That A Shame
TTITLE3=I'm In Love Again
TTITLE4=My Girl Josephine
TTITLE5=When My Dreamboat Comes In
TTITLE6=Goin' To The River
TTITLE7=Whiskey Heaven
TTITLE8=I'm Gonna Be A wheel
TTITLE9=When The Saints Go Marching In
EXTD=
EXTT0=
EXTT1=
EXTT2=
EXTT3=
EXTT4=
EXTT5=
EXTT6=
EXTT7=
EXTT8=
EXTT9=
PLAYORDER=
